<?xml version="1.0" standalone="no"?>
<!DOCTYPE svg PUBLIC "-//W3C//DTD SVG 20010904//EN"
 "http://www.w3.org/TR/2001/REC-SVG-20010904/DTD/svg10.dtd">
<svg version="1.0" xmlns="http://www.w3.org/2000/svg"
 width="30.000000pt" height="40.000000pt" viewBox="0 0 858.000000 980.000000"
 preserveAspectRatio="xMidYMid meet">

<g transform="translate(0.000000,980.000000) scale(0.100000,-0.100000)"
fill="#000000" stroke="none">
<path d="M4030 9790 c-596 -58 -1115 -257 -1589 -612 -159 -120 -426 -380
-549 -535 -340 -431 -549 -915 -634 -1468 -26 -170 -35 -523 -19 -706 97
-1060 723 -1985 1670 -2463 306 -155 588 -244 951 -301 139 -22 569 -32 723
-16 392 41 711 132 1062 306 725 358 1272 978 1539 1743 183 528 216 1136 91
1682 -169 734 -603 1382 -1218 1818 -408 289 -869 469 -1377 537 -138 19 -518
27 -650 15z"/>
<path d="M2085 3674 c-305 -187 -540 -369 -794 -618 -693 -680 -1125 -1542
-1251 -2497 -17 -129 -39 -429 -40 -531 l0 -28 4290 0 4290 0 0 63 c0 34 -5
127 -10 207 -42 594 -182 1117 -440 1635 -365 732 -938 1351 -1643 1774 l-87
52 -138 -88 c-172 -110 -493 -273 -677 -342 -1052 -398 -2209 -293 -3175 287
-69 41 -146 90 -171 108 -26 19 -51 34 -55 33 -5 0 -49 -25 -99 -55z"/>
</g>
</svg>
